<svg xmlns="http://www.w3.org/2000/svg" viewBox="0 0 24 24" fill="#111827">
  <path d="M12 0.297c-6.63 0-12 5.373-12 12 0 5.303 3.438 9.8 8.205 11.385 0.6 0.113 0.82-0.258 0.82-0.577 0-0.285-0.01-1.04-0.015-2.04-3.338 0.724-4.042-1.61-4.042-1.61-0.546-1.387-1.333-1.757-1.333-1.757-1.09-0.745 0.083-0.729 0.083-0.729 1.205 0.084 1.84 1.236 1.84 1.236 1.07 1.835 2.807 1.305 3.492 0.998 0.108-0.775 0.42-1.305 0.763-1.605-2.665-0.3-5.467-1.335-5.467-5.932 0-1.31 0.468-2.38 1.236-3.22-0.124-0.303-0.536-1.523 0.117-3.176 0 0 1.008-0.322 3.3 1.23a11.48 11.48 0 013.006-0.404c1.02 0.005 2.047 0.138 3.006 0.404 2.29-1.552 3.297-1.23 3.297-1.23 0.655 1.653 0.243 2.873 0.12 3.176 0.77 0.84 1.234 1.91 1.234 3.22 0 4.61-2.807 5.628-5.48 5.922 0.43 0.372 0.823 1.102 0.823 2.222 0 1.606-0.015 2.898-0.015 3.293 0 0.322 0.216 0.694 0.825 0.576 4.765-1.587 8.2-6.082 8.2-11.384 0-6.627-5.373-12-12-12"/>
</svg>
